<?xml version="1.0" encoding="UTF-8"?>
<svg id="Layer_1" data-name="Layer 1" xmlns="http://www.w3.org/2000/svg" viewBox="0 0 512 512">
  <defs>
    <style>
      .cls-1 {
        fill: #fff;
      }
    </style>
  </defs>
  <g>
    <path class="cls-1" d="M267.38,173.87c-7.5,6.48-23.76,15.69-32.76,5.28,2.23-1.98,3.23-4.88,2.84-7.6,5.51-2.23,9.23-6.85,10.27-12.49,7.08.79,13.71,4.47,19.36,8.55-.26.7-2,2.29-2.88,3.04,1.03.97,2.47,1.85,3.17,3.22Z"/>
    <path class="cls-1" d="M242.16,164.82c-1.4,1.87-3.33,3.09-5.43,4.13-1.15-2.49-3.58-4.56-6.37-5-.15-5.65-3.42-10.7-8.74-13.47,2.96-6.67,8.85-11.98,14.18-16.09.87.96,1.56,2.49,2.08,3.75.98-.77,3.16-2.1,4.01-2.09,1.82,4.45,4.42,12.97,3.78,20.2-.04.06-.01.16-.01.16-.57,3-1.61,6.2-3.5,8.4Z"/>
    <path class="cls-1" d="M241.24,205.79c-.4,1.21-1.38,3.53-2.01,4-8.57-5.03-22.34-17.89-15.13-29.52,2.56,1.56,5.67,1.66,8.23.4,3.73,4.28,9.11,6.41,14.96,5.79,1.43,6.78-.21,14.94-2.21,21.17-.94-.14-2.71-1.31-3.85-1.83Z"/>
    <path class="cls-1" d="M220.98,194.63c-6.07,3.49-14.44,4.29-20.54,4.34-.13-.77.22-3.03.58-4.18-1.26.02-3.75-.2-4.47-.67,2.2-10.09,10.06-26.73,23.5-23.51-.72,2.73.07,5.78,1.96,7.87-2.99,4.96-3.38,10.35-1.19,15.71l-.04.06.2.38Z"/>
    <path class="cls-1" d="M227.71,163.8c-2.75.29-5.18,1.89-6.69,4.23-6.28-1.56-11.68.33-15.88,4.27-5.11-4.4-9-12.77-10.73-17.93.63-.47,2.95-.77,4.14-.9-.45-1.22-.94-3.65-.81-4.43,9.44-1.22,28.88.98,29.96,14.76Z"/>
  </g>
  <g>
    <path class="cls-1" d="M295.35,159.9c-5.39-6.07-13.11-19.29-4.68-26.77,1.64,1.81,4.03,2.59,6.26,2.24,1.88,4.49,5.71,7.49,10.34,8.28-.57,5.81-3.51,11.28-6.8,15.95-.58-.2-1.9-1.61-2.52-2.33-.79.86-1.49,2.04-2.6,2.63Z"/>
    <path class="cls-1" d="M302.49,139.15c-1.55-1.12-2.56-2.69-3.45-4.41,2.02-.97,3.7-2.98,4.02-5.27,4.62-.19,8.72-2.92,10.93-7.3,5.5,2.35,9.91,7.12,13.33,11.44-.78.72-2.03,1.31-3.05,1.74.64.8,1.75,2.57,1.75,3.27-3.63,1.54-10.57,3.76-16.5,3.31-.05-.03-.13,0-.13,0-2.46-.43-5.09-1.25-6.92-2.77Z"/>
    <path class="cls-1" d="M268.93,138.83c-1-.31-2.9-1.09-3.3-1.6,4.03-7.07,14.41-18.49,24.01-12.71-1.25,2.11-1.3,4.66-.24,6.75-3.46,3.1-5.15,7.53-4.58,12.32-5.54,1.24-12.24,0-17.36-1.58.11-.77,1.04-2.23,1.46-3.17Z"/>
    <path class="cls-1" d="M277.84,122.13c-2.93-4.93-3.67-11.78-3.78-16.78.63-.12,2.49.15,3.43.43-.03-1.03.12-3.07.5-3.67,8.28,1.7,22,7.95,19.51,18.99-2.24-.56-4.73.12-6.43,1.69-4.09-2.39-8.51-2.65-12.88-.81l-.05-.03-.31.17Z"/>
    <path class="cls-1" d="M303.17,127.3c-.27-2.25-1.61-4.22-3.53-5.43,1.21-5.16-.4-9.56-3.67-12.96,3.55-4.23,10.36-7.51,14.57-8.98.39.51.66,2.41.78,3.38.99-.39,2.98-.81,3.62-.71,1.1,7.72-.49,23.67-11.76,24.69Z"/>
  </g>
  <path class="cls-1" d="M253.61,260.53c-.08-1.01-.42-1.85-1.01-2.69-1.43,2.1-3.03,4.04-4.79,5.63,2.35,2.52,4.37,5.63,5.97,8.91.08-5.13,0-9.33-.17-11.85ZM251.59,296c-7.31,0-17.32-1.43-24.46-5.3-5,8.69-13.43,14.41-20.6,18.75-1.17-1.17-2.4-2.43-3.03-4.12-1.84.79-3.55.95-5.38.76-2.85-8.43-4.71-18.26-3.11-26.57-11.24-2.13-19.54-9.5-24.13-13.11.66-1.78.97-2.98,2.69-4.46-1.35-1.36-2.05-3.04-2.61-4.71,5.65-4.48,14.29-9.93,24.88-11.6-.92-6.98.59-14.12,2.52-20.01-28.16-9.33-59.18-12.19-80.87.42-7.15,6.56-74.65,69.35-93.82,96.68-2.86,4.12.67,9.67,5.63,9.08,112.48-14.12,151.99-7.82,209.49,36.06,3.53,2.69,8.83.67,9.33-3.87,1.93-15.89,3.95-44.47,4.96-68.01h-1.51Z"/>
  <path class="cls-1" d="M307.16,230.1c-.08.17-.08.25-.17.42-.17-.08-.25-.08-.42-.17.08-.08.08-.25.17-.34.17.08.25.08.42.08Z"/>
  <path class="cls-1" d="M479.66,331.23c-92.89-16.56-155.44-.34-206.38,35.64-3.95,2.77-9.42-.25-9.16-5.13,1.51-27.74,5.97-94.41,6.64-105.08,2.69-8.15,10.09-13.87,17.49-18.91.25.84.59,1.68,1.01,2.52l.59,1.43,1.51.08c.76,0,1.34-.17,2.02-.5.34.5.76.84,1.26,1.09l1.09.59.34.25,1.34-1.09c2.69-2.1,7.48-6.47,9.58-11.6,2.86.93,6.14,1.35,9.75,1.35,1.6,0,3.28-.08,4.88-.25l2.27-.25v-2.27c0-.42,0-.76-.08-1.18.34-.08.59-.25.76-.34l2.27-1.01-.92-2.27c-.17-.25-.25-.59-.42-.84,32.28-6.98,66.75-4.54,72.38,1.26,7.65,7.99,63.97,69.94,87.26,97.01,3.53,4.12-.08,10.42-5.46,9.5Z"/>
  <path class="cls-1" d="M255.4,402.18s111.32-65.63,245.86-39.05c3.11.61,5.72-2.33,4.65-5.31-.79-2.18-1.57-4.3-2.48-6.42-1.27-2.95-3.81-5.12-6.94-5.81-24.39-5.38-138.34-24.66-241.09,56.59Z"/>
  <path class="cls-1" d="M6.27,354.83c-1.69,4.21,1.79,8.6,6.28,7.95,92.09-13.27,171.02,1.37,242.85,39.4,0,0-77-83.53-243.17-56.88-1.82.29-4.11,4.92-5.97,9.53Z"/>
  <path class="cls-1" d="M303.29,203.03c.17,1.93-.25,3.87-1.26,5.8-1.29-.64-2.75-.9-4.12-.42-3.04-3.66-7.58-5.23-12.19-4.29-1.09-4.29-.17-10.17.67-13.7.67,0,2.02.67,2.77,1.09.08-.93.76-2.44,1.18-2.94,4.33,2.31,12.45,7.95,12.95,14.46Z"/>
  <path class="cls-1" d="M295.64,209.67c-.08.08-.25.17-.25.34-.92.92-1.43,2.27-1.51,3.61-4.31,1.78-7.21,5.53-7.9,10-4.62-.5-9.42-3.03-12.78-5.13.08-.5,1.26-1.6,1.85-2.19-.67-.59-2.19-1.51-2.27-2.1,5.34-5.1,16.18-12.01,22.87-4.54Z"/>
  <path class="cls-1" d="M306.74,230.01c-.08.08-.08.25-.17.34.17.08.25.08.42.17.08-.17.08-.25.17-.42-.17,0-.25,0-.42-.08Z"/>
  <path class="cls-1" d="M304.63,229.51c-1.85,4.46-6.22,8.57-8.83,10.68-.42-.25-1.18-1.77-1.6-2.44-.76.5-2.1,1.51-2.69,1.51-3.2-7.1-6.25-18.93,2.86-23.12.69,1.2,1.76,2.38,3.19,2.77.43,4.56,2.81,8.22,7.06,10.59Z"/>
  <path class="cls-1" d="M320.77,197.56c-.9,6.76-6.52,19.57-15.89,17.23.47-1.36-.14-3-.92-4.12,2.21-4.01,2.61-8.7.42-12.69,4.2-2.61,10-3.36,13.45-3.61.25.84,0,2.02-.17,2.94.94-.01,2.61.05,3.11.25Z"/>
  <path class="cls-1" d="M306.74,230.01c-.08.08-.08.25-.17.34.17.08.25.08.42.17.08-.17.08-.25.17-.42-.17,0-.25,0-.42-.08Z"/>
  <path class="cls-1" d="M321.2,225.89l-.5.08c.34.92.67,1.93.67,3.11-7.92.83-19.86.23-21.18-9.84,1.47-.18,2.78-.98,3.7-2.1,4.41,1.25,9.08-.33,12.11-3.53,3.78,3.28,5.97,7.9,7.57,11.68-.37.19-1.58.64-2.35.59Z"/>
  <path class="cls-1" d="M257.73,240.94c-3.48,10.85-13.93,29.64-29,24.8,1.01-3.28.25-6.73-1.77-9.16,4.08-5.49,4.96-12.26,2.61-18.41,7.43-3.46,16.14-3.83,24.13-3.19.17.84-.59,3.45-1.01,4.71,1.6.34,3.53.34,5.04,1.26Z"/>
  <path class="cls-1" d="M227.55,247.16c-.25,2.67-1.42,5.02-2.86,7.31-2.62-1.75-6.24-2.34-9.25-1.09-3.53-5.45-9.77-8.45-16.64-7.99-1.09-8.32,1.51-17.07,4.29-24.3,1.43.42,3.03,1.51,4.29,2.44.5-1.35,1.85-3.95,2.69-4.46,4.46,3.28,12.11,10.09,15.8,17.57,0,.08.08.17.08.17,1.24,3.29,2.13,7.05,1.6,10.34Z"/>
  <path class="cls-1" d="M251.17,287.93c.34,1.43.76,4.29.42,5.13-11.43.19-32.64-4.18-32.53-19.92,3.45,0,6.56-1.77,8.32-4.54,6.23,1.96,12.78.84,18.16-3.28,5.46,5.8,8.74,14.8,10.51,22.11-1.01.42-3.45.34-4.88.5Z"/>
  <path class="cls-1" d="M224.6,289.11c-3.87,7.06-11.6,12.86-17.57,16.56-.59-.67-1.6-3.11-1.93-4.46-1.23.77-3.8,2.05-4.79,2.02-3.88-11.22-6.13-32.26,9-37.16.92,3.11,3.53,5.63,6.64,6.56.04,6.65,2.88,12.18,8.24,16.14v.08l.42.25Z"/>
  <path class="cls-1" d="M212.75,254.81c-2.52,1.93-3.95,4.96-4.03,8.15-7.1,2.23-11.27,7.32-13.03,13.7-7.65-1.26-16.48-7.15-21.27-11.18.34-.84,2.44-2.52,3.53-3.36-1.18-.92-3.11-3.03-3.45-3.87,8.54-6.85,28.94-16.34,38.25-3.45Z"/>
</svg>